<svg xmlns="http://www.w3.org/2000/svg" viewBox="0 0 1600 1000" preserveAspectRatio="xMidYMid slice">
  <defs>
    <linearGradient id="bg" x1="0" x2="1" y1="0" y2="1">
      <stop offset="0%" stop-color="#0a0b0f"/>
      <stop offset="45%" stop-color="#1f1711"/>
      <stop offset="100%" stop-color="#050608"/>
    </linearGradient>
    <radialGradient id="sun" cx="72%" cy="20%" r="34%">
      <stop offset="0%" stop-color="#f6d28a" stop-opacity="0.9"/>
      <stop offset="45%" stop-color="#c89245" stop-opacity="0.22"/>
      <stop offset="100%" stop-color="#000" stop-opacity="0"/>
    </radialGradient>
    <linearGradient id="d1" x1="0" x2="1">
      <stop offset="0%" stop-color="#5b3921"/>
      <stop offset="100%" stop-color="#ad7d46"/>
    </linearGradient>
    <linearGradient id="d2" x1="0" x2="1">
      <stop offset="0%" stop-color="#2e2017"/>
      <stop offset="100%" stop-color="#8b6334"/>
    </linearGradient>
    <linearGradient id="d3" x1="0" x2="1">
      <stop offset="0%" stop-color="#150f0c"/>
      <stop offset="100%" stop-color="#533920"/>
    </linearGradient>
  </defs>
  <rect width="1600" height="1000" fill="url(#bg)"/>
  <rect width="1600" height="1000" fill="url(#sun)"/>
  <g opacity="0.15">
    <path d="M0 180H1600" stroke="#fff"/>
    <path d="M0 280H1600" stroke="#fff"/>
    <path d="M0 380H1600" stroke="#fff"/>
    <path d="M0 480H1600" stroke="#fff"/>
    <path d="M0 580H1600" stroke="#fff"/>
    <path d="M0 680H1600" stroke="#fff"/>
    <path d="M0 780H1600" stroke="#fff"/>
    <path d="M200 0V1000" stroke="#fff"/>
    <path d="M400 0V1000" stroke="#fff"/>
    <path d="M600 0V1000" stroke="#fff"/>
    <path d="M800 0V1000" stroke="#fff"/>
    <path d="M1000 0V1000" stroke="#fff"/>
    <path d="M1200 0V1000" stroke="#fff"/>
    <path d="M1400 0V1000" stroke="#fff"/>
  </g>
  <path d="M0 630C150 590 270 610 410 560C560 505 730 500 905 560C1060 612 1210 680 1600 630V1000H0Z" fill="url(#d1)"/>
  <path d="M0 720C140 670 270 710 430 675C610 635 780 615 960 665C1130 715 1300 780 1600 730V1000H0Z" fill="url(#d2)" opacity="0.96"/>
  <path d="M0 810C190 780 350 820 520 790C720 750 890 735 1090 775C1270 812 1420 860 1600 830V1000H0Z" fill="url(#d3)"/>
  <g font-family="Arial, Helvetica, sans-serif" fill="#f6ecdc">
    <text x="90" y="840" font-size="62" font-weight="700">Early light over Erg Chebbi</text>
    <rect x="92" y="870" rx="22" ry="22" width="250" height="44" fill="rgba(255,255,255,0.08)" stroke="rgba(255,255,255,0.12)"/>
    <text x="122" y="899" font-size="20" letter-spacing="4">SUNRISE RIDE</text>
  </g>
</svg>